<svg width="40" height="48" viewBox="0 0 40 48" fill="none" xmlns="http://www.w3.org/2000/svg">
<path d="M37.3913 46.5147C37.5398 47.0467 38.0914 47.3576 38.6233 47.2091C39.1553 47.0607 39.4662 46.5091 39.3177 45.9771L37.3913 46.5147ZM1.12478 29.5015L0.143667 29.6949L1.12478 29.5015ZM18.7867 0.0214535C18.2461 -0.0916893 17.7161 0.25481 17.603 0.795381L15.7592 9.6045C15.6461 10.1451 15.9926 10.675 16.5332 10.7882C17.0737 10.9013 17.6037 10.5548 17.7168 10.0142L19.3557 2.1839L27.186 3.8228C27.7266 3.93595 28.2566 3.58945 28.3697 3.04888C28.4828 2.5083 28.1363 1.97837 27.5958 1.86522L18.7867 0.0214535ZM39.3177 45.9771C38.1706 41.8667 34.9789 37.9551 31.0277 34.6237C27.057 31.2759 22.215 28.4259 17.5916 26.4655C12.998 24.5177 8.49181 23.3935 5.21647 23.6305C3.57944 23.7489 2.08564 24.2201 1.10039 25.2809C0.0774805 26.3823 -0.208547 27.9087 0.143667 29.6949L2.10588 29.308C1.83463 27.9324 2.11083 27.1319 2.56587 26.6419C3.05857 26.1114 3.95843 25.7267 5.36078 25.6253C8.16422 25.4225 12.3197 26.4025 16.8109 28.3068C21.2723 30.1985 25.9381 32.9485 29.7385 36.1527C33.5583 39.3733 36.4008 42.9655 37.3913 46.5147L39.3177 45.9771ZM0.143667 29.6949C0.433997 31.1673 1.28954 32.1854 2.56037 32.6384C3.75251 33.0635 5.17765 32.9449 6.61049 32.5205C9.49375 31.6665 12.8988 29.4311 15.8069 26.3596C21.619 20.2209 25.8349 10.266 19.4188 0.452995L17.7448 1.54749C23.4417 10.2603 19.8425 19.1882 14.3545 24.9846C11.6125 27.8807 8.49634 29.8761 6.0425 30.6029C4.80678 30.9689 3.85941 30.9783 3.232 30.7546C2.68328 30.559 2.27224 30.1517 2.10588 29.308L0.143667 29.6949Z" fill="#7D298A"/>
</svg>
