<svg width="61" height="56" viewBox="0 0 61 56" fill="none" xmlns="http://www.w3.org/2000/svg">
<path d="M50.1113 0.16496C49.6501 -0.138901 49.03 -0.0113689 48.7261 0.449811C48.4222 0.910991 48.5498 1.53118 49.0109 1.83504L50.1113 0.16496ZM7.23321 55.7384C7.65529 56.0946 8.28619 56.0412 8.64238 55.6191L14.4468 48.741C14.803 48.319 14.7496 47.688 14.3275 47.3319C13.9055 46.9757 13.2745 47.0291 12.9184 47.4512L7.75885 53.565L1.64497 48.4055C1.2229 48.0493 0.59199 48.1027 0.2358 48.5248C-0.120389 48.9469 -0.066978 49.5778 0.355097 49.934L7.23321 55.7384ZM49.0109 1.83504C53.743 4.95286 56.4642 7.52328 57.739 9.66162C58.3667 10.7146 58.6217 11.6266 58.6258 12.4278C58.6298 13.2228 58.3872 13.9864 57.8909 14.7503C56.8678 16.3251 54.8147 17.8297 51.9088 19.3526C49.0313 20.8607 45.4692 22.3123 41.5783 23.8508C33.8513 26.9061 24.8492 30.2905 17.9801 35.0474C11.0809 39.825 6.12638 46.1363 6.88171 55.0586L8.87458 54.8898C8.20483 46.9785 12.5132 41.2659 19.1187 36.6916C25.7542 32.0965 34.4986 28.8009 42.3137 25.7107C46.1939 24.1764 49.8517 22.6887 52.8372 21.1241C55.7944 19.5742 58.2476 17.8724 59.568 15.84C60.2435 14.8003 60.632 13.6601 60.6257 12.4177C60.6195 11.1815 60.2229 9.92257 59.4569 8.63752C57.9441 6.09988 54.9094 3.32632 50.1113 0.16496L49.0109 1.83504Z" fill="#7D298A"/>
</svg>
