<svg width="68" height="13" viewBox="0 0 68 13" fill="none" xmlns="http://www.w3.org/2000/svg">
<path d="M65.1455 12.1826C65.4186 12.6627 66.0291 12.8305 66.5092 12.5574C66.9892 12.2844 67.157 11.6738 66.884 11.1938L65.1455 12.1826ZM4.16266 0.0515608C3.63872 -0.123087 3.0724 0.160073 2.89775 0.684016L0.0517023 9.22217C-0.122945 9.74611 0.160215 10.3124 0.684158 10.4871C1.2081 10.6617 1.77442 10.3786 1.94907 9.85462L4.47889 2.26516L12.0684 4.79498C12.5923 4.96962 13.1586 4.68647 13.3333 4.16252C13.5079 3.63858 13.2248 3.07226 12.7008 2.89761L4.16266 0.0515608ZM66.884 11.1938C65.4023 8.589 63.4458 6.86805 61.1269 5.83658C58.827 4.81351 56.2294 4.49427 53.4874 4.58495C48.049 4.7648 41.7303 6.58318 35.5585 8.11239C29.2988 9.66336 23.154 10.9305 17.7741 10.2209C12.4957 9.52459 7.9254 6.9221 4.74086 0.553031L2.95201 1.44746C6.44745 8.43834 11.6076 11.4248 17.5126 12.2037C23.3162 12.9692 29.8076 11.5978 36.0395 10.0537C42.3592 8.48784 48.3873 6.75471 53.5535 6.58386C56.1137 6.49919 58.3827 6.80479 60.3141 7.66394C62.2266 8.51469 63.8661 9.93331 65.1455 12.1826L66.884 11.1938Z" fill="#7D298A"/>
</svg>
